#
# generated by kHED
#
# vertices:
v 0.000000 0.688531 0.000000
v 0.000000 0.688531 0.000000
v 0.188531 0.311469 -0.188531
v 0.188531 0.311469 0.188531
v -0.188531 0.311469 0.188531
v -0.188531 0.311469 -0.188531

# texture coords:
vt 19.685040 0.000000 0.0
vt -19.685040 39.370079 0.0
vt -19.685040 0.000000 0.0
vt 19.685040 39.370079 0.0
vt -19.685040 0.000000 0.0
vt 19.685040 0.000000 0.0
vt 19.685040 39.370079 0.0
vt -19.685040 0.000000 0.0
vt 19.685040 0.000000 0.0
vt 19.685040 0.000000 0.0
vt -19.685040 39.370079 0.0
vt -19.685040 0.000000 0.0
vt -19.685040 19.685040 0.0
vt 19.685040 -19.685040 0.0
vt 19.685040 19.685040 0.0
vt 19.685040 -19.685040 0.0
vt -19.685040 19.685040 0.0
vt -19.685040 -19.685040 0.0

# normals:
vn 0.894427 0.447214 0.000000
vn 0.894427 0.447214 0.000000
vn 0.894427 0.447214 0.000000
vn 0.000000 0.447214 0.894427
vn 0.000000 0.447214 0.894427
vn 0.000000 0.447214 0.894427
vn 0.000000 0.447214 -0.894427
vn 0.000000 0.447214 -0.894427
vn 0.000000 0.447214 -0.894427
vn -0.894427 0.447214 0.000000
vn -0.894427 0.447214 0.000000
vn -0.894427 0.447214 0.000000
vn 0.000000 -1.000000 0.000000
vn 0.000000 -1.000000 0.000000
vn 0.000000 -1.000000 0.000000
vn 0.000000 -1.000000 0.000000
vn 0.000000 -1.000000 0.000000
vn 0.000000 -1.000000 0.000000

# triangles:
g Group 1
usemtl [default]
f 3/1/1 1/2/2 4/3/3
f 1/4/4 5/5/5 4/6/6
f 2/7/7 3/8/8 6/9/9
f 5/10/10 2/11/11 6/12/12
f 5/13/13 3/14/14 4/15/15
f 3/16/16 5/17/17 6/18/18

g