#
# generated by kHED
#
# vertices:
v 0.188531 0.688531 -0.188531
v 0.188531 0.688531 0.188531
v -0.188531 0.688531 -0.188531
v -0.188531 0.688531 0.188531
v 0.188531 0.311469 -0.188531
v 0.188531 0.311469 0.188531
v -0.188531 0.311469 0.188531
v -0.188531 0.311469 -0.188531

# texture coords:
vt 19.685040 -19.685040 0.0
vt -19.685040 19.685040 0.0
vt -19.685040 -19.685040 0.0
vt -19.685040 19.685040 0.0
vt 19.685040 -19.685040 0.0
vt 19.685040 19.685040 0.0
vt -19.685040 39.370079 0.0
vt 19.685040 0.000000 0.0
vt 19.685040 39.370079 0.0
vt 19.685040 0.000000 0.0
vt -19.685040 39.370079 0.0
vt -19.685040 0.000000 0.0
vt 19.685040 39.370079 0.0
vt -19.685040 0.000000 0.0
vt 19.685040 0.000000 0.0
vt -19.685040 0.000000 0.0
vt 19.685040 39.370079 0.0
vt -19.685040 39.370079 0.0
vt 19.685040 39.370079 0.0
vt -19.685040 0.000000 0.0
vt 19.685040 0.000000 0.0
vt -19.685040 0.000000 0.0
vt 19.685040 39.370079 0.0
vt -19.685040 39.370079 0.0
vt 19.685040 0.000000 0.0
vt -19.685040 39.370079 0.0
vt -19.685040 0.000000 0.0
vt -19.685040 39.370079 0.0
vt 19.685040 0.000000 0.0
vt 19.685040 39.370079 0.0
vt -19.685040 19.685040 0.0
vt 19.685040 -19.685040 0.0
vt 19.685040 19.685040 0.0
vt 19.685040 -19.685040 0.0
vt -19.685040 19.685040 0.0
vt -19.685040 -19.685040 0.0

# normals:
vn 0.000000 1.000000 0.000000
vn 0.000000 1.000000 0.000000
vn 0.000000 1.000000 0.000000
vn 0.000000 1.000000 0.000000
vn 0.000000 1.000000 0.000000
vn 0.000000 1.000000 0.000000
vn 1.000000 0.000000 0.000000
vn 1.000000 0.000000 0.000000
vn 1.000000 0.000000 0.000000
vn 1.000000 0.000000 0.000000
vn 1.000000 0.000000 0.000000
vn 1.000000 0.000000 0.000000
vn 0.000000 0.000000 1.000000
vn 0.000000 0.000000 1.000000
vn 0.000000 0.000000 1.000000
vn 0.000000 0.000000 1.000000
vn 0.000000 0.000000 1.000000
vn 0.000000 0.000000 1.000000
vn 0.000000 0.000000 -1.000000
vn 0.000000 0.000000 -1.000000
vn 0.000000 0.000000 -1.000000
vn 0.000000 0.000000 -1.000000
vn 0.000000 0.000000 -1.000000
vn 0.000000 0.000000 -1.000000
vn -1.000000 0.000000 0.000000
vn -1.000000 0.000000 0.000000
vn -1.000000 0.000000 0.000000
vn -1.000000 0.000000 0.000000
vn -1.000000 0.000000 0.000000
vn -1.000000 0.000000 0.000000
vn 0.000000 -1.000000 0.000000
vn 0.000000 -1.000000 0.000000
vn 0.000000 -1.000000 0.000000
vn 0.000000 -1.000000 0.000000
vn 0.000000 -1.000000 0.000000
vn 0.000000 -1.000000 0.000000

# triangles:
g Group 1
usemtl [default]
f 3/1/1 2/2/2 1/3/3
f 2/4/4 3/5/5 4/6/6
f 2/7/7 5/8/8 1/9/9
f 5/10/10 2/11/11 6/12/12
f 2/13/13 7/14/14 6/15/15
f 7/16/16 2/17/17 4/18/18
f 3/19/19 5/20/20 8/21/21
f 5/22/22 3/23/23 1/24/24
f 7/25/25 3/26/26 8/27/27
f 3/28/28 7/29/29 4/30/30
f 7/31/31 5/32/32 6/33/33
f 5/34/34 7/35/35 8/36/36

g